<svg width="127" height="34" viewBox="0 0 127 34" fill="none" xmlns="http://www.w3.org/2000/svg">
<path d="M2.24609 5.37891C3.19141 5.06641 4.07812 4.77734 4.90625 4.51172C5.74219 4.24609 6.62109 3.99609 7.54297 3.76172C8.46484 3.51953 9.34766 3.32812 10.1914 3.1875C10.8398 3.07813 11.5039 3.02344 12.1836 3.02344C13.3164 3.02344 14.0586 3.05469 14.4102 3.11719C14.9414 3.21875 15.4414 3.38281 15.9102 3.60938C16.3867 3.83594 16.8086 4.14062 17.1758 4.52344C17.5508 4.89844 17.8555 5.34375 18.0898 5.85938C18.1836 6.07031 18.2305 6.29297 18.2305 6.52734C18.2305 7.40234 17.75 8.48047 16.7891 9.76172C15.8359 11.043 14.875 12.1602 13.9062 13.1133C12.9453 14.0664 12.2266 14.75 11.75 15.1641L13.8594 22.5586L10.7891 24.7734L5.41016 9.41016C5.39453 9.41016 5.32031 9.48438 5.1875 9.63281C5.05469 9.78125 4.87891 9.97656 4.66016 10.2188C4.44922 10.4531 4.31641 10.5977 4.26172 10.6523C4.23828 10.6523 4.16016 10.4844 4.02734 10.1484C3.90234 9.8125 3.73047 9.34766 3.51172 8.75391C3.30078 8.15234 3.0625 7.48828 2.79688 6.76172C2.52344 6.02734 2.33984 5.56641 2.24609 5.37891ZM9.82812 8.63672L10.7891 12.0938C11.2734 11.6016 11.875 10.9297 12.5938 10.0781C13.3125 9.22656 13.6719 8.60938 13.6719 8.22656C13.6719 8.07812 13.6094 7.99219 13.4844 7.96875C13.1328 7.89062 12.7852 7.85156 12.4414 7.85156C11.4102 7.85156 10.5391 8.11328 9.82812 8.63672ZM27.0312 11.3086C27.5859 11.6055 28.0352 12.0078 28.3789 12.5156C28.7305 13.0156 28.9844 13.582 29.1406 14.2148C29.3047 14.8398 29.3867 15.4922 29.3867 16.1719C29.3867 16.7344 29.3398 17.2773 29.2461 17.8008C29.1602 18.3242 29.0391 18.8047 28.8828 19.2422C28.7266 19.6797 28.543 20.0508 28.332 20.3555C27.8398 21.0898 27.3125 21.7227 26.75 22.2539C26.1875 22.7852 25.6133 23.2148 25.0273 23.543C24.4414 23.8633 23.8594 24.0977 23.2812 24.2461C22.7109 24.4023 22.1445 24.4805 21.582 24.4805C20.918 24.4805 20.2852 24.375 19.6836 24.1641C19.0898 23.9609 18.582 23.6914 18.1602 23.3555C17.4648 22.7773 16.9219 22 16.5312 21.0234C16.1406 20.0391 15.9453 19 15.9453 17.9062C15.9453 16.0234 16.4883 14.5039 17.5742 13.3477C18.5039 12.3555 19.4648 11.6094 20.457 11.1094C21.4492 10.6016 22.4648 10.3477 23.5039 10.3477C24.1133 10.3477 24.6992 10.4258 25.2617 10.582C25.8242 10.7305 26.4141 10.9727 27.0312 11.3086ZM26.3398 13.2773C26.207 13.8711 25.918 14.3945 25.4727 14.8477C25.0352 15.3008 24.6055 15.5273 24.1836 15.5273C23.9727 15.5273 23.7852 15.4727 23.6211 15.3633C23.3867 15.1758 23.2695 14.8477 23.2695 14.3789C23.2695 14.0195 23.3867 13.6641 23.6211 13.3125C23.8633 12.9609 24.2422 12.6836 24.7578 12.4805C24.2422 12.4805 23.7422 12.5781 23.2578 12.7734C22.7812 12.9688 22.3711 13.2227 22.0273 13.5352C21.6836 13.8398 21.4062 14.1875 21.1953 14.5781C20.9922 14.9609 20.8906 15.3477 20.8906 15.7383C20.8906 16.4648 21.2266 17.043 21.8984 17.4727C22.5234 17.8711 23.1172 18.0703 23.6797 18.0703C24.2344 18.0703 24.7266 17.8867 25.1562 17.5195C25.5859 17.1445 25.9141 16.668 26.1406 16.0898C26.3672 15.5039 26.4805 14.9258 26.4805 14.3555C26.4805 13.9648 26.4336 13.6055 26.3398 13.2773ZM27.4414 4.41797L33.3945 1.92188L34.2617 15.457L39.1602 12.7734L44.2461 13.5352L37.6133 18.6211L43.8594 23.332L44.1406 28.0312L34.9297 21.4102L35.2227 27.1641L29.6445 27.2695L28.5898 6.91406L26.8672 7.30078L27.4414 4.41797ZM52.4023 17.5195L55.2266 20.9297C55 21.5859 54.4609 22.1875 53.6094 22.7344C52.7656 23.2812 51.7578 23.7109 50.5859 24.0234C49.4219 24.3438 48.2578 24.5039 47.0938 24.5039C46.0625 24.5039 45.1406 24.3672 44.3281 24.0938C43.5234 23.8203 42.9023 23.4062 42.4648 22.8516C41.707 21.8984 41.3281 20.6797 41.3281 19.1953C41.3281 18.0234 41.5391 16.8711 41.9609 15.7383C42.3906 14.5977 42.8438 13.8008 43.3203 13.3477C43.8906 12.8086 44.5078 12.3594 45.1719 12C45.8438 11.6406 46.5391 11.3711 47.2578 11.1914C47.9766 11.0117 48.7148 10.9219 49.4727 10.9219C50.4648 10.9219 51.4062 11.082 52.2969 11.4023C53.1953 11.7148 53.9805 12.1719 54.6523 12.7734L48.2188 20.4492C48.7891 20.4492 49.3281 20.332 49.8359 20.0977C50.3516 19.8555 50.8242 19.5156 51.2539 19.0781C51.6836 18.6328 52.0664 18.1133 52.4023 17.5195ZM49.1562 14.7891C48.7734 14.5938 48.3828 14.4961 47.9844 14.4961C47.5625 14.4961 47.1523 14.582 46.7539 14.7539C46.3633 14.9258 46.0859 15.1289 45.9219 15.3633C45.4375 15.9883 45.1953 16.6758 45.1953 17.4258C45.1953 17.6992 45.2227 17.9609 45.2773 18.2109C45.332 18.4609 45.4258 18.8047 45.5586 19.2422L49.1562 14.7891ZM64.4492 8.54297L65.1172 24.293H64.4023C63.9336 24.293 63.3398 24.2773 62.6211 24.2461C61.9023 24.2227 61.25 24.1719 60.6641 24.0938C60.0781 24.0234 59.6445 23.9297 59.3633 23.8125L58.5898 8.73047L51.2891 8.83594L51.3945 4.21875L70.1094 2.97656L70.4023 8.0625L64.4492 8.54297ZM77.4219 11.3086C77.9766 11.6055 78.4258 12.0078 78.7695 12.5156C79.1211 13.0156 79.375 13.582 79.5312 14.2148C79.6953 14.8398 79.7773 15.4922 79.7773 16.1719C79.7773 16.7344 79.7305 17.2773 79.6367 17.8008C79.5508 18.3242 79.4297 18.8047 79.2734 19.2422C79.1172 19.6797 78.9336 20.0508 78.7227 20.3555C78.2305 21.0898 77.7031 21.7227 77.1406 22.2539C76.5781 22.7852 76.0039 23.2148 75.418 23.543C74.832 23.8633 74.25 24.0977 73.6719 24.2461C73.1016 24.4023 72.5352 24.4805 71.9727 24.4805C71.3086 24.4805 70.6758 24.375 70.0742 24.1641C69.4805 23.9609 68.9727 23.6914 68.5508 23.3555C67.8555 22.7773 67.3125 22 66.9219 21.0234C66.5312 20.0391 66.3359 19 66.3359 17.9062C66.3359 16.0234 66.8789 14.5039 67.9648 13.3477C68.8945 12.3555 69.8555 11.6094 70.8477 11.1094C71.8398 10.6016 72.8555 10.3477 73.8945 10.3477C74.5039 10.3477 75.0898 10.4258 75.6523 10.582C76.2148 10.7305 76.8047 10.9727 77.4219 11.3086ZM76.7305 13.2773C76.5977 13.8711 76.3086 14.3945 75.8633 14.8477C75.4258 15.3008 74.9961 15.5273 74.5742 15.5273C74.3633 15.5273 74.1758 15.4727 74.0117 15.3633C73.7773 15.1758 73.6602 14.8477 73.6602 14.3789C73.6602 14.0195 73.7773 13.6641 74.0117 13.3125C74.2539 12.9609 74.6328 12.6836 75.1484 12.4805C74.6328 12.4805 74.1328 12.5781 73.6484 12.7734C73.1719 12.9688 72.7617 13.2227 72.418 13.5352C72.0742 13.8398 71.7969 14.1875 71.5859 14.5781C71.3828 14.9609 71.2812 15.3477 71.2812 15.7383C71.2812 16.4648 71.6172 17.043 72.2891 17.4727C72.9141 17.8711 73.5078 18.0703 74.0703 18.0703C74.625 18.0703 75.1172 17.8867 75.5469 17.5195C75.9766 17.1445 76.3047 16.668 76.5312 16.0898C76.7578 15.5039 76.8711 14.9258 76.8711 14.3555C76.8711 13.9648 76.8242 13.6055 76.7305 13.2773ZM89.6445 8.54297L90.3125 24.293H89.5977C89.1289 24.293 88.5352 24.2773 87.8164 24.2461C87.0977 24.2227 86.4453 24.1719 85.8594 24.0938C85.2734 24.0234 84.8398 23.9297 84.5586 23.8125L83.7852 8.73047L76.4844 8.83594L76.5898 4.21875L95.3047 2.97656L95.5977 8.0625L89.6445 8.54297ZM102.617 11.3086C103.172 11.6055 103.621 12.0078 103.965 12.5156C104.316 13.0156 104.57 13.582 104.727 14.2148C104.891 14.8398 104.973 15.4922 104.973 16.1719C104.973 16.7344 104.926 17.2773 104.832 17.8008C104.746 18.3242 104.625 18.8047 104.469 19.2422C104.312 19.6797 104.129 20.0508 103.918 20.3555C103.426 21.0898 102.898 21.7227 102.336 22.2539C101.773 22.7852 101.199 23.2148 100.613 23.543C100.027 23.8633 99.4453 24.0977 98.8672 24.2461C98.2969 24.4023 97.7305 24.4805 97.168 24.4805C96.5039 24.4805 95.8711 24.375 95.2695 24.1641C94.6758 23.9609 94.168 23.6914 93.7461 23.3555C93.0508 22.7773 92.5078 22 92.1172 21.0234C91.7266 20.0391 91.5312 19 91.5312 17.9062C91.5312 16.0234 92.0742 14.5039 93.1602 13.3477C94.0898 12.3555 95.0508 11.6094 96.043 11.1094C97.0352 10.6016 98.0508 10.3477 99.0898 10.3477C99.6992 10.3477 100.285 10.4258 100.848 10.582C101.41 10.7305 102 10.9727 102.617 11.3086ZM101.926 13.2773C101.793 13.8711 101.504 14.3945 101.059 14.8477C100.621 15.3008 100.191 15.5273 99.7695 15.5273C99.5586 15.5273 99.3711 15.4727 99.207 15.3633C98.9727 15.1758 98.8555 14.8477 98.8555 14.3789C98.8555 14.0195 98.9727 13.6641 99.207 13.3125C99.4492 12.9609 99.8281 12.6836 100.344 12.4805C99.8281 12.4805 99.3281 12.5781 98.8438 12.7734C98.3672 12.9688 97.957 13.2227 97.6133 13.5352C97.2695 13.8398 96.9922 14.1875 96.7812 14.5781C96.5781 14.9609 96.4766 15.3477 96.4766 15.7383C96.4766 16.4648 96.8125 17.043 97.4844 17.4727C98.1094 17.8711 98.7031 18.0703 99.2656 18.0703C99.8203 18.0703 100.312 17.8867 100.742 17.5195C101.172 17.1445 101.5 16.668 101.727 16.0898C101.953 15.5039 102.066 14.9258 102.066 14.3555C102.066 13.9648 102.02 13.6055 101.926 13.2773ZM112.438 20.0625L107.926 27.8438L101.879 28.0312L110.223 14.4961L103.215 2.78906L109.754 3.73828L113.012 9.31641L116.176 3.73828L122.609 3.45703L115.801 14.9062L121.848 26.9766L115.215 25.4414L112.438 20.0625Z" fill="#FFCB05"/>
<path d="M2.24609 5.37891L1.93222 4.42944L0.834731 4.79225L1.35167 5.82612L2.24609 5.37891ZM4.90625 4.51172L4.60341 3.55867L4.60082 3.5595L4.90625 4.51172ZM7.54297 3.76172L7.78938 4.73092L7.79706 4.7289L7.54297 3.76172ZM10.1914 3.1875L10.3558 4.1739L10.3577 4.17357L10.1914 3.1875ZM14.4102 3.11719L14.5979 2.13489L14.5852 2.13262L14.4102 3.11719ZM15.9102 3.60938L15.475 4.50974L15.4808 4.51251L15.9102 3.60938ZM17.1758 4.52344L16.4541 5.21566L16.4613 5.22318L16.4687 5.23054L17.1758 4.52344ZM18.0898 5.85938L19.0037 5.45322L19.0002 5.44557L18.0898 5.85938ZM16.7891 9.76172L15.9891 9.16171L15.9867 9.16485L16.7891 9.76172ZM13.9062 13.1133L13.2049 12.4004L13.202 12.4033L13.9062 13.1133ZM11.75 15.1641L11.0941 14.4092L10.6138 14.8265L10.7884 15.4384L11.75 15.1641ZM13.8594 22.5586L14.4444 23.3696L15.0135 22.9591L14.821 22.2843L13.8594 22.5586ZM10.7891 24.7734L9.84524 25.1039L10.2878 26.368L11.3741 25.5844L10.7891 24.7734ZM5.41016 9.41016L6.35398 9.07971L6.11956 8.41016H5.41016V9.41016ZM4.66016 10.2188L3.91805 9.54846L3.91686 9.54979L4.66016 10.2188ZM4.26172 10.6523V11.6523H4.67593L4.96883 11.3595L4.26172 10.6523ZM4.02734 10.1484L3.09012 10.4972L3.09366 10.5067L3.09738 10.5161L4.02734 10.1484ZM3.51172 8.75391L2.56805 9.0848L2.57066 9.09223L2.57338 9.09961L3.51172 8.75391ZM2.79688 6.76172L3.73609 6.41835L3.73402 6.41278L2.79688 6.76172ZM9.82812 8.63672L9.23523 7.83144L8.68 8.24023L8.86465 8.90453L9.82812 8.63672ZM10.7891 12.0938L9.82559 12.3616L10.2887 14.0278L11.5018 12.7952L10.7891 12.0938ZM13.4844 7.96875L13.2674 8.94494L13.2837 8.94855L13.3001 8.95162L13.4844 7.96875ZM2.55997 6.32837C3.50286 6.01667 4.38674 5.72854 5.21168 5.46393L4.60082 3.5595C3.76951 3.82615 2.87995 4.11614 1.93222 4.42944L2.55997 6.32837ZM5.20909 5.46476C6.02489 5.20553 6.88489 4.96084 7.78937 4.73089L7.29657 2.79255C6.3573 3.03135 5.45948 3.28665 4.60341 3.55868L5.20909 5.46476ZM7.79706 4.7289C8.69264 4.49362 9.54541 4.30896 10.3558 4.17389L10.027 2.20111C9.1499 2.34729 8.23705 2.54544 7.28888 2.79454L7.79706 4.7289ZM10.3577 4.17357C10.9494 4.07377 11.5578 4.02344 12.1836 4.02344V2.02344C11.45 2.02344 10.7303 2.08248 10.0251 2.20143L10.3577 4.17357ZM12.1836 4.02344C13.3351 4.02344 13.9861 4.05747 14.2351 4.10175L14.5852 2.13262C14.1311 2.0519 13.2977 2.02344 12.1836 2.02344V4.02344ZM14.2224 4.0994C14.6713 4.18522 15.0878 4.32258 15.475 4.50972L16.3453 2.70903C15.795 2.44305 15.2115 2.25228 14.5979 2.13498L14.2224 4.0994ZM15.4808 4.51251C15.8474 4.68678 16.1703 4.91981 16.4541 5.21566L17.8975 3.83121C17.4469 3.36144 16.9261 2.9851 16.3395 2.70624L15.4808 4.51251ZM16.4687 5.23054C16.7533 5.51513 16.9913 5.85924 17.1795 6.27318L19.0002 5.44557C18.7196 4.82826 18.3483 4.28174 17.8829 3.81633L16.4687 5.23054ZM17.176 6.26551C17.2121 6.34659 17.2305 6.43068 17.2305 6.52734H19.2305C19.2305 6.15526 19.1551 5.79404 19.0037 5.45324L17.176 6.26551ZM17.2305 6.52734C17.2305 7.0692 16.9143 7.92812 15.9891 9.16172L17.5891 10.3617C18.5857 9.03282 19.2305 7.73549 19.2305 6.52734H17.2305ZM15.9867 9.16485C15.0591 10.4118 14.1314 11.4889 13.2049 12.4004L14.6076 13.8261C15.6186 12.8314 16.6128 11.6741 17.5914 10.3586L15.9867 9.16485ZM13.202 12.4033C12.2433 13.3543 11.5442 14.0181 11.0941 14.4092L12.4059 15.9189C12.9089 15.4819 13.6474 14.7786 14.6105 13.8233L13.202 12.4033ZM10.7884 15.4384L12.8977 22.8329L14.821 22.2843L12.7116 14.8897L10.7884 15.4384ZM13.2743 21.7476L10.204 23.9624L11.3741 25.5844L14.4444 23.3696L13.2743 21.7476ZM11.7329 24.443L6.35398 9.07971L4.46633 9.7406L9.84524 25.1039L11.7329 24.443ZM5.41016 8.41016C5.22781 8.41016 5.09071 8.46008 5.03175 8.48392C4.96235 8.51197 4.90959 8.54228 4.87899 8.56103C4.81812 8.59834 4.77259 8.63492 4.75057 8.65311C4.70295 8.69245 4.66194 8.73244 4.63567 8.75871C4.57862 8.81576 4.51217 8.88788 4.44226 8.96602L5.93274 10.2996C5.99564 10.2293 6.03271 10.1901 6.04988 10.1729C6.06071 10.1621 6.04949 10.1742 6.02433 10.195C6.01355 10.2039 5.97741 10.2336 5.92411 10.2662C5.8973 10.2827 5.84786 10.3112 5.78133 10.3381C5.72524 10.3608 5.59055 10.4102 5.41016 10.4102V8.41016ZM4.44226 8.96602C4.31093 9.11279 4.13632 9.30681 3.91805 9.54846L5.40226 10.889C5.62149 10.6463 5.79844 10.4497 5.93274 10.2996L4.44226 8.96602ZM3.91686 9.54979C3.69912 9.79172 3.58643 9.91342 3.55461 9.94524L4.96883 11.3595C5.04638 11.2819 5.19931 11.1145 5.40345 10.8877L3.91686 9.54979ZM4.26172 9.65234C4.55013 9.65234 4.74961 9.77528 4.82658 9.82866C4.91541 9.89027 4.97334 9.95245 4.9997 9.98227C5.05365 10.0433 5.0843 10.0946 5.08962 10.1034C5.10539 10.1295 5.10739 10.1371 5.09227 10.1046C5.06596 10.0481 5.02189 9.94415 4.9573 9.78078L3.09738 10.5161C3.16561 10.6887 3.22701 10.8367 3.27883 10.9481C3.30277 10.9996 3.33699 11.0702 3.37815 11.1383C3.39617 11.1681 3.43781 11.2351 3.50104 11.3067C3.53203 11.3417 3.59417 11.4079 3.68678 11.4721C3.76754 11.5281 3.97038 11.6523 4.26172 11.6523V9.65234ZM4.96457 9.7997C4.84012 9.46526 4.66867 9.00158 4.45006 8.4082L2.57338 9.09961C2.79226 9.69374 2.96457 10.1597 3.09012 10.4972L4.96457 9.7997ZM4.45539 8.42301C4.24272 7.81652 4.00291 7.14822 3.73608 6.41835L1.85767 7.10508C2.12209 7.82834 2.35884 8.48817 2.56805 9.0848L4.45539 8.42301ZM3.73402 6.41278C3.46672 5.69489 3.26342 5.17749 3.14052 4.93169L1.35167 5.82612C1.41627 5.95533 1.58015 6.35979 1.85973 7.11066L3.73402 6.41278ZM8.86465 8.90453L9.82559 12.3616L11.7525 11.8259L10.7916 8.36891L8.86465 8.90453ZM11.5018 12.7952C12.0114 12.2773 12.6314 11.5839 13.3579 10.7231L11.8296 9.43313C11.1186 10.2755 10.5354 10.9258 10.0763 11.3923L11.5018 12.7952ZM13.3579 10.7231C13.7364 10.2747 14.0462 9.85805 14.2665 9.47975C14.4702 9.13 14.6719 8.69007 14.6719 8.22656H12.6719C12.6719 8.14587 12.6939 8.20594 12.5382 8.47337C12.3991 8.71226 12.1698 9.03001 11.8296 9.43313L13.3579 10.7231ZM14.6719 8.22656C14.6719 8.02263 14.63 7.73242 14.4337 7.46261C14.2237 7.17374 13.9296 7.03481 13.6687 6.98588L13.3001 8.95162C13.1641 8.92613 12.9638 8.84188 12.8163 8.63895C12.6825 8.45508 12.6719 8.28206 12.6719 8.22656H14.6719ZM13.7013 6.99256C13.2819 6.89936 12.8615 6.85156 12.4414 6.85156V8.85156C12.7088 8.85156 12.9837 8.88189 13.2674 8.94494L13.7013 6.99256ZM12.4414 6.85156C11.2339 6.85156 10.1456 7.16115 9.23523 7.83144L10.421 9.442C10.9325 9.06541 11.5864 8.85156 12.4414 8.85156V6.85156ZM27.0312 11.3086L26.5532 12.1869L26.5594 12.1903L27.0312 11.3086ZM28.3789 12.5156L27.5508 13.0762L27.5558 13.0835L27.5609 13.0908L28.3789 12.5156ZM29.1406 14.2148L28.1698 14.4546L28.1715 14.4617L28.1734 14.4687L29.1406 14.2148ZM29.2461 17.8008L28.2618 17.6245L28.2605 17.6316L28.2593 17.6388L29.2461 17.8008ZM28.332 20.3555L27.5098 19.7863L27.5055 19.7925L27.5013 19.7987L28.332 20.3555ZM25.0273 23.543L25.507 24.4205L25.5159 24.4155L25.0273 23.543ZM23.2812 24.2461L23.0326 23.2775L23.0248 23.2795L23.017 23.2816L23.2812 24.2461ZM19.6836 24.1641L20.0145 23.2204L20.0073 23.2179L19.6836 24.1641ZM18.1602 23.3555L17.5208 24.1244L17.529 24.1312L17.5372 24.1377L18.1602 23.3555ZM16.5312 21.0234L15.6018 21.3923L15.6028 21.3948L16.5312 21.0234ZM17.5742 13.3477L18.3031 14.0323L18.3039 14.0314L17.5742 13.3477ZM20.457 11.1094L20.9071 12.0024L20.9126 11.9996L20.457 11.1094ZM25.2617 10.582L24.9941 11.5456L25.0066 11.5489L25.2617 10.582ZM26.3398 13.2773L27.3014 13.0026L25.364 13.0591L26.3398 13.2773ZM25.4727 14.8477L24.7594 14.1467L24.7533 14.1531L25.4727 14.8477ZM23.6211 15.3633L22.9964 16.1442L23.0303 16.1713L23.0664 16.1953L23.6211 15.3633ZM23.6211 13.3125L22.7976 12.7452L22.7933 12.7515L22.789 12.7578L23.6211 13.3125ZM24.7578 12.4805L25.1243 13.4109L24.7578 11.4805V12.4805ZM23.2578 12.7734L22.8838 11.846L22.8786 11.8481L23.2578 12.7734ZM22.0273 13.5352L22.6907 14.2836L22.7 14.2751L22.0273 13.5352ZM21.1953 14.5781L20.3154 14.103L20.312 14.1094L21.1953 14.5781ZM21.8984 17.4727L21.3597 18.3151L21.3609 18.3159L21.8984 17.4727ZM25.1562 17.5195L25.8059 18.2798L25.8138 18.273L25.1562 17.5195ZM26.1406 16.0898L27.0717 16.4547L27.0733 16.4505L26.1406 16.0898ZM26.5594 12.1903C26.9749 12.4126 27.3004 12.7063 27.5508 13.0762L29.207 11.9551C28.7699 11.3093 28.197 10.7983 27.5031 10.4269L26.5594 12.1903ZM27.5609 13.0908C27.8365 13.4828 28.0412 13.934 28.1698 14.4546L30.1115 13.9751C29.9275 13.2301 29.6244 12.5484 29.1969 11.9404L27.5609 13.0908ZM28.1734 14.4687C28.3146 15.0067 28.3867 15.5734 28.3867 16.1719H30.3867C30.3867 15.4109 30.2948 14.673 30.1079 13.9609L28.1734 14.4687ZM28.3867 16.1719C28.3867 16.6786 28.3445 17.1625 28.2618 17.6245L30.2304 17.9771C30.3352 17.3922 30.3867 16.7901 30.3867 16.1719H28.3867ZM28.2593 17.6388C28.1818 18.111 28.0745 18.5323 27.9411 18.9059L29.8246 19.5785C30.0036 19.0771 30.1385 18.5374 30.2329 17.9628L28.2593 17.6388ZM27.9411 18.9059C27.8072 19.2807 27.6602 19.5691 27.5098 19.7863L29.1542 20.9247C29.4258 20.5324 29.6459 20.0787 29.8246 19.5785L27.9411 18.9059ZM27.5013 19.7987C27.0449 20.4798 26.5646 21.0535 26.0634 21.5269L27.4366 22.9809C28.0604 22.3918 28.6348 21.6999 29.1627 20.9122L27.5013 19.7987ZM26.0634 21.5269C25.5518 22.01 25.043 22.3881 24.5387 22.6705L25.5159 24.4155C26.1835 24.0416 26.8232 23.5603 27.4366 22.9809L26.0634 21.5269ZM24.5477 22.6655C24.0261 22.9506 23.5213 23.152 23.0326 23.2775L23.5299 25.2147C24.1974 25.0433 24.8567 24.7759 25.507 24.4204L24.5477 22.6655ZM23.017 23.2816C22.5284 23.4155 22.0508 23.4805 21.582 23.4805V25.4805C22.2383 25.4805 22.8935 25.3892 23.5455 25.2106L23.017 23.2816ZM21.582 23.4805C21.0259 23.4805 20.5053 23.3925 20.0145 23.2204L19.3527 25.1077C20.065 25.3575 20.81 25.4805 21.582 25.4805V23.4805ZM20.0073 23.2179C19.5045 23.0459 19.102 22.8271 18.7831 22.5732L17.5372 24.1377C18.0621 24.5557 18.6752 24.876 19.3599 25.1102L20.0073 23.2179ZM18.7995 22.5865C18.2516 22.131 17.7987 21.4994 17.4597 20.652L15.6028 21.3948C16.0451 22.5006 16.6781 23.4237 17.5208 24.1244L18.7995 22.5865ZM17.4607 20.6546C17.1182 19.7915 16.9453 18.8779 16.9453 17.9062H14.9453C14.9453 19.1221 15.163 20.2867 15.6018 21.3923L17.4607 20.6546ZM16.9453 17.9062C16.9453 16.2272 17.4231 14.9692 18.3031 14.0323L16.8453 12.6631C15.5534 14.0386 14.9453 15.8197 14.9453 17.9062H16.9453ZM18.3039 14.0314C19.1707 13.1063 20.0402 12.4393 20.9071 12.0024L20.007 10.2164C18.8895 10.7795 17.8371 11.6046 16.8445 12.6639L18.3039 14.0314ZM20.9126 11.9996C21.7743 11.5585 22.6347 11.3477 23.5039 11.3477V9.34766C22.295 9.34766 21.1241 9.64458 20.0014 10.2192L20.9126 11.9996ZM23.5039 11.3477C24.0268 11.3477 24.5225 11.4145 24.9941 11.5455L25.5294 9.61851C24.876 9.43701 24.1998 9.34766 23.5039 9.34766V11.3477ZM25.0066 11.5489C25.4774 11.6732 25.9924 11.8817 26.5532 12.1869L27.5093 10.4303C26.8357 10.0636 26.171 9.78776 25.5169 9.61513L25.0066 11.5489ZM25.364 13.0591C25.2738 13.4623 25.0799 13.8206 24.7594 14.1467L26.1859 15.5486C26.756 14.9684 27.1403 14.2799 27.3157 13.4956L25.364 13.0591ZM24.7533 14.1531C24.4117 14.5068 24.2249 14.5273 24.1836 14.5273V16.5273C24.986 16.5273 25.6586 16.0948 26.1921 15.5423L24.7533 14.1531ZM24.1836 14.5273C24.1741 14.5273 24.1684 14.5267 24.1658 14.5264C24.1632 14.526 24.1631 14.5258 24.1648 14.5263C24.1665 14.5268 24.1689 14.5277 24.1714 14.5289C24.174 14.5301 24.1755 14.531 24.1758 14.5312L23.0664 16.1953C23.4064 16.422 23.7897 16.5273 24.1836 16.5273V14.5273ZM24.2458 14.5824C24.2955 14.6222 24.3056 14.6582 24.2992 14.6402C24.2899 14.6142 24.2695 14.5357 24.2695 14.3789H22.2695C22.2695 14.9794 22.417 15.6806 22.9964 16.1442L24.2458 14.5824ZM24.2695 14.3789C24.2695 14.2496 24.3086 14.084 24.4531 13.8672L22.789 12.7578C22.4648 13.2441 22.2695 13.7894 22.2695 14.3789H24.2695ZM24.4446 13.8798C24.5447 13.7345 24.7391 13.5626 25.1243 13.4109L24.3913 11.5501C23.7452 11.8046 23.1819 12.1874 22.7976 12.7452L24.4446 13.8798ZM24.7578 11.4805C24.1124 11.4805 23.4855 11.6034 22.8838 11.846L23.6318 13.7009C23.9989 13.5529 24.372 13.4805 24.7578 13.4805V11.4805ZM22.8786 11.8481C22.3058 12.0829 21.7935 12.3962 21.3547 12.7952L22.7 14.2751C22.9486 14.0491 23.2567 13.8546 23.637 13.6987L22.8786 11.8481ZM21.364 12.7868C20.9357 13.1664 20.5839 13.6057 20.3154 14.103L22.0752 15.0533C22.2286 14.7693 22.4315 14.5132 22.6907 14.2835L21.364 12.7868ZM20.312 14.1094C20.0408 14.6205 19.8906 15.167 19.8906 15.7383H21.8906C21.8906 15.5284 21.9436 15.3014 22.0787 15.0468L20.312 14.1094ZM19.8906 15.7383C19.8906 16.8438 20.4338 17.723 21.3597 18.3151L22.4372 16.6302C22.0193 16.3629 21.8906 16.0859 21.8906 15.7383H19.8906ZM21.3609 18.3159C22.0965 18.7848 22.8751 19.0703 23.6797 19.0703V17.0703C23.3593 17.0703 22.9504 16.9573 22.436 16.6294L21.3609 18.3159ZM23.6797 19.0703C24.4775 19.0703 25.1989 18.7985 25.8059 18.2798L24.5066 16.7593C24.2542 16.975 23.9913 17.0703 23.6797 17.0703V19.0703ZM25.8138 18.273C26.3751 17.7831 26.7918 17.1689 27.0717 16.4547L25.2096 15.725C25.0363 16.167 24.7968 16.5059 24.4987 16.7661L25.8138 18.273ZM27.0733 16.4505C27.3399 15.7612 27.4805 15.061 27.4805 14.3555H25.4805C25.4805 14.7905 25.3945 15.2466 25.2079 15.7292L27.0733 16.4505ZM27.4805 14.3555C27.4805 13.8851 27.424 13.4319 27.3014 13.0026L25.3783 13.5521C25.4432 13.779 25.4805 14.0446 25.4805 14.3555H27.4805ZM27.4414 4.41797L27.0547 3.49575L26.5645 3.7013L26.4607 4.22262L27.4414 4.41797ZM33.3945 1.92188L34.3925 1.85794L34.3027 0.456737L33.0079 0.99966L33.3945 1.92188ZM34.2617 15.457L33.2638 15.521L33.3642 17.089L34.7422 16.334L34.2617 15.457ZM39.1602 12.7734L39.3083 11.7845L38.9751 11.7346L38.6797 11.8964L39.1602 12.7734ZM44.2461 13.5352L44.8546 14.3287L46.7242 12.8951L44.3942 12.5462L44.2461 13.5352ZM37.6133 18.6211L37.0048 17.8275L35.9613 18.6277L37.0111 19.4195L37.6133 18.6211ZM43.8594 23.332L44.8576 23.2723L44.83 22.8116L44.4615 22.5337L43.8594 23.332ZM44.1406 28.0312L43.5569 28.8432L45.2645 30.0707L45.1388 27.9715L44.1406 28.0312ZM34.9297 21.4102L35.5134 20.5982L33.8253 19.3847L33.931 21.461L34.9297 21.4102ZM35.2227 27.1641L35.2416 28.1639L36.2739 28.1444L36.2214 27.1132L35.2227 27.1641ZM29.6445 27.2695L28.6459 27.3213L28.6959 28.2876L29.6634 28.2694L29.6445 27.2695ZM28.5898 6.91406L29.5885 6.86232L29.5272 5.67875L28.3708 5.93835L28.5898 6.91406ZM26.8672 7.30078L25.8865 7.10543L25.5861 8.61326L27.0862 8.2765L26.8672 7.30078ZM27.8281 5.34018L33.7812 2.84409L33.0079 0.99966L27.0547 3.49575L27.8281 5.34018ZM32.3966 1.98581L33.2638 15.521L35.2597 15.3931L34.3925 1.85794L32.3966 1.98581ZM34.7422 16.334L39.6406 13.6504L38.6797 11.8964L33.7813 14.58L34.7422 16.334ZM39.012 13.7624L44.098 14.5241L44.3942 12.5462L39.3083 11.7845L39.012 13.7624ZM43.6376 12.7416L37.0048 17.8275L38.2218 19.4147L44.8546 14.3287L43.6376 12.7416ZM37.0111 19.4195L43.2572 24.1304L44.4615 22.5337L38.2154 17.8227L37.0111 19.4195ZM42.8612 23.3918L43.1424 28.091L45.1388 27.9715L44.8576 23.2723L42.8612 23.3918ZM44.7243 27.2193L35.5134 20.5982L34.346 22.2221L43.5569 28.8432L44.7243 27.2193ZM33.931 21.461L34.2239 27.2149L36.2214 27.1132L35.9284 21.3593L33.931 21.461ZM35.2038 26.1642L29.6256 26.2697L29.6634 28.2694L35.2416 28.1639L35.2038 26.1642ZM30.6432 27.2178L29.5885 6.86232L27.5912 6.96581L28.6459 27.3213L30.6432 27.2178ZM28.3708 5.93835L26.6481 6.32506L27.0862 8.2765L28.8089 7.88978L28.3708 5.93835ZM27.8479 7.49613L28.4221 4.61332L26.4607 4.22262L25.8865 7.10543L27.8479 7.49613ZM52.4023 17.5195L53.1725 16.8817L52.2467 15.7638L51.532 17.0271L52.4023 17.5195ZM55.2266 20.9297L56.1718 21.256L56.3552 20.7247L55.9967 20.2918L55.2266 20.9297ZM53.6094 22.7344L53.069 21.8929L53.0655 21.8952L53.6094 22.7344ZM50.5859 24.0234L50.3283 23.0572L50.3206 23.0593L50.5859 24.0234ZM44.3281 24.0938L44.0064 25.0406L44.0092 25.0415L44.3281 24.0938ZM42.4648 22.8516L43.25 22.2323L43.2476 22.2292L42.4648 22.8516ZM41.9609 15.7383L41.0251 15.3858L41.0238 15.3893L41.9609 15.7383ZM43.3203 13.3477L42.6334 12.6209L42.6313 12.623L43.3203 13.3477ZM45.1719 12L44.7002 11.1182L44.6959 11.1205L45.1719 12ZM52.2969 11.4023L51.9584 12.3434L51.9684 12.3468L52.2969 11.4023ZM54.6523 12.7734L55.4187 13.4158L56.0405 12.674L55.3194 12.0284L54.6523 12.7734ZM48.2188 20.4492L47.4524 19.8069L46.0758 21.4492H48.2188V20.4492ZM49.8359 20.0977L50.255 21.0056L50.2611 21.0028L49.8359 20.0977ZM51.2539 19.0781L51.9674 19.7789L51.9735 19.7725L51.2539 19.0781ZM49.1562 14.7891L49.9341 15.4175L50.7088 14.4586L49.6107 13.8983L49.1562 14.7891ZM46.7539 14.7539L46.3578 13.8357L46.3512 13.8386L46.7539 14.7539ZM45.9219 15.3633L46.7123 15.9759L46.7272 15.9566L46.7411 15.9367L45.9219 15.3633ZM45.5586 19.2422L44.6017 19.5327L45.1501 21.3391L46.3365 19.8706L45.5586 19.2422ZM51.6322 18.1574L54.4564 21.5675L55.9967 20.2918L53.1725 16.8817L51.6322 18.1574ZM54.2813 20.6034C54.155 20.9693 53.8152 21.4137 53.069 21.8929L54.1497 23.5758C55.1066 22.9613 55.845 22.2025 56.1718 21.256L54.2813 20.6034ZM53.0655 21.8952C52.3259 22.3746 51.4189 22.7664 50.3283 23.0572L50.8436 24.9897C52.0967 24.6555 53.2054 24.1879 54.1533 23.5735L53.0655 21.8952ZM50.3206 23.0593C49.2398 23.3567 48.1649 23.5039 47.0938 23.5039V25.5039C48.3507 25.5039 49.604 25.3308 50.8512 24.9876L50.3206 23.0593ZM47.0938 23.5039C46.1496 23.5039 45.3384 23.3786 44.6471 23.146L44.0092 25.0415C44.9429 25.3557 45.9754 25.5039 47.0938 25.5039V23.5039ZM44.6499 23.1469C43.9905 22.9229 43.5455 22.6069 43.25 22.2323L41.6797 23.4708C42.2592 24.2056 43.0564 24.7178 44.0064 25.0406L44.6499 23.1469ZM43.2476 22.2292C42.6592 21.4892 42.3281 20.5047 42.3281 19.1953H40.3281C40.3281 20.8547 40.7548 22.3077 41.6821 23.4739L43.2476 22.2292ZM42.3281 19.1953C42.3281 18.1463 42.5164 17.112 42.8981 16.0873L41.0238 15.3893C40.5617 16.6302 40.3281 17.9005 40.3281 19.1953H42.3281ZM42.8967 16.0908C43.3112 14.9907 43.6997 14.3668 44.0094 14.0724L42.6313 12.623C41.9878 13.2348 41.4701 14.2046 41.0251 15.3858L42.8967 16.0908ZM44.0072 14.0744C44.5167 13.5929 45.0634 13.1957 45.6478 12.8795L44.6959 11.1205C43.9522 11.523 43.2646 12.0243 42.6334 12.6209L44.0072 14.0744ZM45.6435 12.8818C46.245 12.5601 46.8636 12.3207 47.5003 12.1615L47.0153 10.2213C46.2146 10.4214 45.4425 10.7212 44.7002 11.1182L45.6435 12.8818ZM47.5003 12.1615C48.138 12.0021 48.7947 11.9219 49.4727 11.9219V9.92188C48.635 9.92188 47.8152 10.0213 47.0153 10.2213L47.5003 12.1615ZM49.4727 11.9219C50.3551 11.9219 51.1816 12.0639 51.9584 12.3433L52.6353 10.4614C51.6309 10.1001 50.5746 9.92188 49.4727 9.92188V11.9219ZM51.9684 12.3468C52.7488 12.6183 53.4173 13.0099 53.9853 13.5185L55.3194 12.0284C54.5436 11.3339 53.6418 10.8114 52.6254 10.4578L51.9684 12.3468ZM53.8859 12.1311L47.4524 19.8069L48.9851 21.0916L55.4187 13.4158L53.8859 12.1311ZM48.2188 21.4492C48.9308 21.4492 49.6132 21.3018 50.255 21.0056L49.4169 19.1897C49.0431 19.3622 48.6473 19.4492 48.2188 19.4492V21.4492ZM50.2611 21.0028C50.8921 20.7064 51.4609 20.2945 51.9674 19.7788L50.5405 18.3774C50.1876 18.7367 49.811 19.0046 49.4108 19.1925L50.2611 21.0028ZM51.9735 19.7725C52.4674 19.2607 52.8994 18.6717 53.2727 18.012L51.532 17.0271C51.2334 17.5549 50.8998 18.005 50.5343 18.3838L51.9735 19.7725ZM49.6107 13.8983C49.0985 13.637 48.553 13.4961 47.9844 13.4961V15.4961C48.2126 15.4961 48.4484 15.5505 48.7018 15.6798L49.6107 13.8983ZM47.9844 13.4961C47.4223 13.4961 46.8777 13.6114 46.3578 13.8357L47.15 15.6721C47.427 15.5526 47.7027 15.4961 47.9844 15.4961V13.4961ZM46.3512 13.8386C45.8698 14.0504 45.4111 14.3492 45.1026 14.7898L46.7411 15.9367C46.7608 15.9086 46.8568 15.8012 47.1566 15.6692L46.3512 13.8386ZM45.1315 14.7507C44.5191 15.5408 44.1953 16.4414 44.1953 17.4258H46.1953C46.1953 16.9101 46.3559 16.4358 46.7123 15.9759L45.1315 14.7507ZM44.1953 17.4258C44.1953 17.7662 44.2294 18.0998 44.3004 18.4246L46.2542 17.9972C46.2159 17.822 46.1953 17.6322 46.1953 17.4258H44.1953ZM44.3004 18.4246C44.3635 18.713 44.4662 19.0862 44.6017 19.5327L46.5155 18.9517C46.3854 18.5232 46.3005 18.2088 46.2542 17.9972L44.3004 18.4246ZM46.3365 19.8706L49.9341 15.4175L48.3784 14.1606L44.7807 18.6138L46.3365 19.8706ZM64.4492 8.54297L64.3688 7.54621L63.4093 7.62365L63.4501 8.58534L64.4492 8.54297ZM65.1172 24.293V25.293H66.1605L66.1163 24.2506L65.1172 24.293ZM62.6211 24.2461L62.6645 23.247L62.6537 23.2466L62.6211 24.2461ZM60.6641 24.0938L60.7962 23.1024L60.7832 23.1009L60.6641 24.0938ZM59.3633 23.8125L58.3646 23.8637L58.3969 24.4932L58.9787 24.7356L59.3633 23.8125ZM58.5898 8.73047L59.5885 8.67925L59.5392 7.71665L58.5754 7.73057L58.5898 8.73047ZM51.2891 8.83594L50.2893 8.8131L50.2656 9.85083L51.3035 9.83583L51.2891 8.83594ZM51.3945 4.21875L51.3283 3.22095L50.4157 3.28152L50.3948 4.19591L51.3945 4.21875ZM70.1094 2.97656L71.1077 2.91905L71.0497 1.91195L70.0431 1.97876L70.1094 2.97656ZM70.4023 8.0625L70.4828 9.05926L71.4569 8.98064L71.4007 8.00499L70.4023 8.0625ZM63.4501 8.58534L64.1181 24.3353L66.1163 24.2506L65.4483 8.5006L63.4501 8.58534ZM65.1172 23.293H64.4023V25.293H65.1172V23.293ZM64.4023 23.293C63.9535 23.293 63.3756 23.278 62.6645 23.247L62.5777 25.2451C63.3041 25.2767 63.9136 25.293 64.4023 25.293V23.293ZM62.6537 23.2466C61.9614 23.2241 61.343 23.1754 60.7962 23.1025L60.5319 25.085C61.157 25.1683 61.8433 25.2213 62.5885 25.2456L62.6537 23.2466ZM60.7832 23.1009C60.2201 23.0333 59.8982 22.952 59.7479 22.8894L58.9787 24.7356C59.3909 24.9073 59.9361 25.0136 60.5449 25.0866L60.7832 23.1009ZM60.362 23.7613L59.5885 8.67925L57.5912 8.78168L58.3646 23.8637L60.362 23.7613ZM58.5754 7.73057L51.2746 7.83604L51.3035 9.83583L58.6043 9.73036L58.5754 7.73057ZM52.2888 8.85877L52.3943 4.24159L50.3948 4.19591L50.2893 8.8131L52.2888 8.85877ZM51.4608 5.21655L70.1756 3.97437L70.0431 1.97876L51.3283 3.22095L51.4608 5.21655ZM69.111 3.03407L69.404 8.12001L71.4007 8.00499L71.1077 2.91905L69.111 3.03407ZM70.3219 7.06574L64.3688 7.54621L64.5297 9.53973L70.4828 9.05926L70.3219 7.06574ZM77.4219 11.3086L76.9438 12.1869L76.95 12.1903L77.4219 11.3086ZM78.7695 12.5156L77.9414 13.0762L77.9464 13.0835L77.9515 13.0908L78.7695 12.5156ZM79.5312 14.2148L78.5604 14.4546L78.5622 14.4617L78.564 14.4687L79.5312 14.2148ZM79.6367 17.8008L78.6524 17.6245L78.6511 17.6316L78.6499 17.6388L79.6367 17.8008ZM78.7227 20.3555L77.9005 19.7863L77.8962 19.7925L77.892 19.7987L78.7227 20.3555ZM75.418 23.543L75.8977 24.4205L75.9066 24.4155L75.418 23.543ZM73.6719 24.2461L73.4232 23.2775L73.4154 23.2795L73.4076 23.2816L73.6719 24.2461ZM70.0742 24.1641L70.4051 23.2204L70.3979 23.2179L70.0742 24.1641ZM68.5508 23.3555L67.9114 24.1244L67.9196 24.1312L67.9279 24.1377L68.5508 23.3555ZM66.9219 21.0234L65.9924 21.3923L65.9934 21.3948L66.9219 21.0234ZM67.9648 13.3477L68.6938 14.0323L68.6946 14.0314L67.9648 13.3477ZM70.8477 11.1094L71.2977 12.0024L71.3033 11.9996L70.8477 11.1094ZM75.6523 10.582L75.3847 11.5456L75.3972 11.5489L75.6523 10.582ZM76.7305 13.2773L77.692 13.0026L75.7546 13.0591L76.7305 13.2773ZM75.8633 14.8477L75.15 14.1467L75.1439 14.1531L75.8633 14.8477ZM74.0117 15.3633L73.387 16.1442L73.4209 16.1713L73.457 16.1953L74.0117 15.3633ZM74.0117 13.3125L73.1882 12.7452L73.1839 12.7515L73.1797 12.7578L74.0117 13.3125ZM75.1484 12.4805L75.515 13.4109L75.1484 11.4805V12.4805ZM73.6484 12.7734L73.2745 11.846L73.2692 11.8481L73.6484 12.7734ZM72.418 13.5352L73.0813 14.2836L73.0906 14.2751L72.418 13.5352ZM71.5859 14.5781L70.706 14.103L70.7026 14.1094L71.5859 14.5781ZM72.2891 17.4727L71.7503 18.3151L71.7515 18.3159L72.2891 17.4727ZM75.5469 17.5195L76.1966 18.2798L76.2044 18.273L75.5469 17.5195ZM76.5312 16.0898L77.4623 16.4547L77.464 16.4505L76.5312 16.0898ZM76.95 12.1903C77.3655 12.4126 77.691 12.7063 77.9414 13.0762L79.5976 11.9551C79.1605 11.3093 78.5876 10.7983 77.8938 10.4269L76.95 12.1903ZM77.9515 13.0908C78.2272 13.4828 78.4319 13.934 78.5604 14.4546L80.5021 13.9751C80.3181 13.2301 80.015 12.5484 79.5876 11.9404L77.9515 13.0908ZM78.564 14.4687C78.7052 15.0067 78.7773 15.5734 78.7773 16.1719H80.7773C80.7773 15.4109 80.6854 14.673 80.4985 13.9609L78.564 14.4687ZM78.7773 16.1719C78.7773 16.6786 78.7351 17.1625 78.6524 17.6245L80.6211 17.9771C80.7258 17.3922 80.7773 16.7901 80.7773 16.1719H78.7773ZM78.6499 17.6388C78.5724 18.111 78.4651 18.5323 78.3317 18.9059L80.2152 19.5785C80.3943 19.0771 80.5292 18.5374 80.6235 17.9628L78.6499 17.6388ZM78.3317 18.9059C78.1978 19.2807 78.0508 19.5691 77.9005 19.7863L79.5448 20.9247C79.8164 20.5324 80.0366 20.0787 80.2152 19.5785L78.3317 18.9059ZM77.892 19.7987C77.4355 20.4798 76.9552 21.0535 76.454 21.5269L77.8272 22.9809C78.451 22.3918 79.0254 21.6999 79.5533 20.9122L77.892 19.7987ZM76.454 21.5269C75.9424 22.01 75.4337 22.3881 74.9294 22.6705L75.9066 24.4155C76.5741 24.0416 77.2138 23.5603 77.8272 22.9809L76.454 21.5269ZM74.9383 22.6655C74.4168 22.9506 73.912 23.152 73.4232 23.2775L73.9206 25.2147C74.588 25.0433 75.2473 24.7759 75.8976 24.4204L74.9383 22.6655ZM73.4076 23.2816C72.919 23.4155 72.4414 23.4805 71.9727 23.4805V25.4805C72.6289 25.4805 73.2841 25.3892 73.9361 25.2106L73.4076 23.2816ZM71.9727 23.4805C71.4165 23.4805 70.8959 23.3925 70.4051 23.2204L69.7433 25.1077C70.4556 25.3575 71.2007 25.4805 71.9727 25.4805V23.4805ZM70.3979 23.2179C69.8952 23.0459 69.4926 22.8271 69.1737 22.5732L67.9279 24.1377C68.4527 24.5557 69.0658 24.876 69.7505 25.1102L70.3979 23.2179ZM69.1901 22.5865C68.6422 22.131 68.1893 21.4994 67.8504 20.652L65.9934 21.3948C66.4357 22.5006 67.0687 23.4237 67.9114 24.1244L69.1901 22.5865ZM67.8514 20.6546C67.5089 19.7915 67.3359 18.8779 67.3359 17.9062H65.3359C65.3359 19.1221 65.5536 20.2867 65.9924 21.3923L67.8514 20.6546ZM67.3359 17.9062C67.3359 16.2272 67.8138 14.9692 68.6938 14.0323L67.2359 12.6631C65.944 14.0386 65.3359 15.8197 65.3359 17.9062H67.3359ZM68.6946 14.0314C69.5614 13.1063 70.4308 12.4393 71.2977 12.0024L70.3976 10.2164C69.2802 10.7795 68.2277 11.6046 67.2351 12.6639L68.6946 14.0314ZM71.3033 11.9996C72.1649 11.5585 73.0253 11.3477 73.8945 11.3477V9.34766C72.6857 9.34766 71.5148 9.64458 70.3921 10.2192L71.3033 11.9996ZM73.8945 11.3477C74.4174 11.3477 74.9131 11.4145 75.3847 11.5455L75.92 9.61851C75.2666 9.43701 74.5904 9.34766 73.8945 9.34766V11.3477ZM75.3972 11.5489C75.868 11.6732 76.383 11.8817 76.9438 12.1869L77.8999 10.4303C77.2263 10.0636 76.5617 9.78776 75.9075 9.61513L75.3972 11.5489ZM75.7546 13.0591C75.6644 13.4623 75.4705 13.8206 75.1501 14.1467L76.5765 15.5486C77.1467 14.9684 77.5309 14.2799 77.7064 13.4956L75.7546 13.0591ZM75.1439 14.1531C74.8023 14.5068 74.6156 14.5273 74.5742 14.5273V16.5273C75.3766 16.5273 76.0492 16.0948 76.5827 15.5423L75.1439 14.1531ZM74.5742 14.5273C74.5648 14.5273 74.559 14.5267 74.5564 14.5264C74.5538 14.526 74.5537 14.5258 74.5554 14.5263C74.5571 14.5268 74.5595 14.5277 74.562 14.5289C74.5646 14.5301 74.5661 14.531 74.5664 14.5312L73.457 16.1953C73.797 16.422 74.1803 16.5273 74.5742 16.5273V14.5273ZM74.6364 14.5824C74.6861 14.6222 74.6962 14.6582 74.6898 14.6402C74.6805 14.6142 74.6602 14.5357 74.6602 14.3789H72.6602C72.6602 14.9794 72.8076 15.6806 73.387 16.1442L74.6364 14.5824ZM74.6602 14.3789C74.6602 14.2496 74.6993 14.084 74.8438 13.8672L73.1797 12.7578C72.8554 13.2441 72.6602 13.7894 72.6602 14.3789H74.6602ZM74.8352 13.8798C74.9353 13.7345 75.1298 13.5626 75.515 13.4109L74.7819 11.5501C74.1359 11.8046 73.5725 12.1874 73.1882 12.7452L74.8352 13.8798ZM75.1484 11.4805C74.503 11.4805 73.8761 11.6034 73.2745 11.846L74.0224 13.7009C74.3895 13.5529 74.7626 13.4805 75.1484 13.4805V11.4805ZM73.2692 11.8481C72.6964 12.0829 72.1842 12.3962 71.7453 12.7952L73.0906 14.2751C73.3393 14.0491 73.6473 13.8546 74.0277 13.6987L73.2692 11.8481ZM71.7547 12.7868C71.3264 13.1664 70.9745 13.6057 70.706 14.103L72.4658 15.0533C72.6192 14.7693 72.8221 14.5132 73.0813 14.2835L71.7547 12.7868ZM70.7026 14.1094C70.4314 14.6205 70.2812 15.167 70.2812 15.7383H72.2812C72.2812 15.5284 72.3342 15.3014 72.4693 15.0468L70.7026 14.1094ZM70.2812 15.7383C70.2812 16.8438 70.8244 17.723 71.7503 18.3151L72.8278 16.6302C72.4099 16.3629 72.2812 16.0859 72.2812 15.7383H70.2812ZM71.7515 18.3159C72.4871 18.7848 73.2657 19.0703 74.0703 19.0703V17.0703C73.7499 17.0703 73.341 16.9573 72.8266 16.6294L71.7515 18.3159ZM74.0703 19.0703C74.8681 19.0703 75.5895 18.7985 76.1965 18.2798L74.8972 16.7593C74.6449 16.975 74.3819 17.0703 74.0703 17.0703V19.0703ZM76.2044 18.273C76.7657 17.7831 77.1824 17.1689 77.4623 16.4547L75.6002 15.725C75.4269 16.167 75.1874 16.5059 74.8893 16.7661L76.2044 18.273ZM77.464 16.4505C77.7305 15.7612 77.8711 15.061 77.8711 14.3555H75.8711C75.8711 14.7905 75.7851 15.2466 75.5985 15.7292L77.464 16.4505ZM77.8711 14.3555C77.8711 13.8851 77.8146 13.4319 77.692 13.0026L75.7689 13.5521C75.8338 13.779 75.8711 14.0446 75.8711 14.3555H77.8711ZM89.6445 8.54297L89.5641 7.54621L88.6046 7.62365L88.6454 8.58534L89.6445 8.54297ZM90.3125 24.293V25.293H91.3558L91.3116 24.2506L90.3125 24.293ZM87.8164 24.2461L87.8598 23.247L87.849 23.2466L87.8164 24.2461ZM85.8594 24.0938L85.9916 23.1024L85.9785 23.1009L85.8594 24.0938ZM84.5586 23.8125L83.5599 23.8637L83.5922 24.4932L84.174 24.7356L84.5586 23.8125ZM83.7852 8.73047L84.7838 8.67925L84.7345 7.71665L83.7707 7.73057L83.7852 8.73047ZM76.4844 8.83594L75.4846 8.8131L75.4609 9.85083L76.4988 9.83583L76.4844 8.83594ZM76.5898 4.21875L76.5236 3.22095L75.611 3.28152L75.5901 4.19591L76.5898 4.21875ZM95.3047 2.97656L96.303 2.91905L96.245 1.91195L95.2385 1.97876L95.3047 2.97656ZM95.5977 8.0625L95.6781 9.05926L96.6522 8.98064L96.596 8.00499L95.5977 8.0625ZM88.6454 8.58534L89.3134 24.3353L91.3116 24.2506L90.6436 8.5006L88.6454 8.58534ZM90.3125 23.293H89.5977V25.293H90.3125V23.293ZM89.5977 23.293C89.1489 23.293 88.5709 23.278 87.8598 23.247L87.773 25.2451C88.4994 25.2767 89.109 25.293 89.5977 25.293V23.293ZM87.849 23.2466C87.1567 23.2241 86.5383 23.1754 85.9915 23.1025L85.7272 25.085C86.3523 25.1683 87.0386 25.2213 87.7838 25.2456L87.849 23.2466ZM85.9785 23.1009C85.4154 23.0333 85.0935 22.952 84.9432 22.8894L84.174 24.7356C84.5862 24.9073 85.1314 25.0136 85.7402 25.0866L85.9785 23.1009ZM85.5573 23.7613L84.7838 8.67925L82.7865 8.78168L83.5599 23.8637L85.5573 23.7613ZM83.7707 7.73057L76.4699 7.83604L76.4988 9.83583L83.7996 9.73036L83.7707 7.73057ZM77.4841 8.85877L77.5896 4.24159L75.5901 4.19591L75.4846 8.8131L77.4841 8.85877ZM76.6561 5.21655L95.3709 3.97437L95.2385 1.97876L76.5236 3.22095L76.6561 5.21655ZM94.3063 3.03407L94.5993 8.12001L96.596 8.00499L96.303 2.91905L94.3063 3.03407ZM95.5172 7.06574L89.5641 7.54621L89.725 9.53973L95.6781 9.05926L95.5172 7.06574ZM102.617 11.3086L102.139 12.1869L102.145 12.1903L102.617 11.3086ZM103.965 12.5156L103.137 13.0762L103.142 13.0835L103.147 13.0908L103.965 12.5156ZM104.727 14.2148L103.756 14.4546L103.757 14.4617L103.759 14.4687L104.727 14.2148ZM104.832 17.8008L103.848 17.6245L103.846 17.6316L103.845 17.6388L104.832 17.8008ZM103.918 20.3555L103.096 19.7863L103.091 19.7925L103.087 19.7987L103.918 20.3555ZM100.613 23.543L101.093 24.4205L101.102 24.4155L100.613 23.543ZM98.8672 24.2461L98.6185 23.2775L98.6107 23.2795L98.603 23.2816L98.8672 24.2461ZM95.2695 24.1641L95.6004 23.2204L95.5932 23.2179L95.2695 24.1641ZM93.7461 23.3555L93.1068 24.1244L93.1149 24.1312L93.1232 24.1377L93.7461 23.3555ZM92.1172 21.0234L91.1877 21.3923L91.1887 21.3948L92.1172 21.0234ZM93.1602 13.3477L93.8891 14.0323L93.8899 14.0314L93.1602 13.3477ZM96.043 11.1094L96.493 12.0024L96.4986 11.9996L96.043 11.1094ZM100.848 10.582L100.58 11.5456L100.593 11.5489L100.848 10.582ZM101.926 13.2773L102.887 13.0026L100.95 13.0591L101.926 13.2773ZM101.059 14.8477L100.345 14.1467L100.339 14.1531L101.059 14.8477ZM99.207 15.3633L98.5823 16.1442L98.6162 16.1713L98.6523 16.1953L99.207 15.3633ZM99.207 13.3125L98.3835 12.7452L98.3792 12.7515L98.375 12.7578L99.207 13.3125ZM100.344 12.4805L100.71 13.4109L100.344 11.4805V12.4805ZM98.8438 12.7734L98.4698 11.846L98.4645 11.8481L98.8438 12.7734ZM97.6133 13.5352L98.2766 14.2836L98.286 14.2751L97.6133 13.5352ZM96.7812 14.5781L95.9013 14.103L95.8979 14.1094L96.7812 14.5781ZM97.4844 17.4727L96.9456 18.3151L96.9468 18.3159L97.4844 17.4727ZM100.742 17.5195L101.392 18.2798L101.4 18.273L100.742 17.5195ZM101.727 16.0898L102.658 16.4547L102.659 16.4505L101.727 16.0898ZM102.145 12.1903C102.561 12.4126 102.886 12.7063 103.137 13.0762L104.793 11.9551C104.356 11.3093 103.783 10.7983 103.089 10.4269L102.145 12.1903ZM103.147 13.0908C103.422 13.4828 103.627 13.934 103.756 14.4546L105.697 13.9751C105.513 13.2301 105.21 12.5484 104.783 11.9404L103.147 13.0908ZM103.759 14.4687C103.901 15.0067 103.973 15.5734 103.973 16.1719H105.973C105.973 15.4109 105.881 14.673 105.694 13.9609L103.759 14.4687ZM103.973 16.1719C103.973 16.6786 103.93 17.1625 103.848 17.6245L105.816 17.9771C105.921 17.3922 105.973 16.7901 105.973 16.1719H103.973ZM103.845 17.6388C103.768 18.111 103.66 18.5323 103.527 18.9059L105.41 19.5785C105.59 19.0771 105.724 18.5374 105.819 17.9628L103.845 17.6388ZM103.527 18.9059C103.393 19.2807 103.246 19.5691 103.096 19.7863L104.74 20.9247C105.012 20.5324 105.232 20.0787 105.41 19.5785L103.527 18.9059ZM103.087 19.7987C102.631 20.4798 102.151 21.0535 101.649 21.5269L103.023 22.9809C103.646 22.3918 104.221 21.6999 104.749 20.9122L103.087 19.7987ZM101.649 21.5269C101.138 22.01 100.629 22.3881 100.125 22.6705L101.102 24.4155C101.769 24.0416 102.409 23.5603 103.023 22.9809L101.649 21.5269ZM100.134 22.6655C99.6121 22.9506 99.1073 23.152 98.6185 23.2775L99.1159 25.2147C99.7834 25.0433 100.443 24.7759 101.093 24.4204L100.134 22.6655ZM98.603 23.2816C98.1143 23.4155 97.6367 23.4805 97.168 23.4805V25.4805C97.8242 25.4805 98.4794 25.3892 99.1314 25.2106L98.603 23.2816ZM97.168 23.4805C96.6118 23.4805 96.0913 23.3925 95.6004 23.2204L94.9386 25.1077C95.6509 25.3575 96.396 25.4805 97.168 25.4805V23.4805ZM95.5932 23.2179C95.0905 23.0459 94.6879 22.8271 94.369 22.5732L93.1232 24.1377C93.648 24.5557 94.2611 24.876 94.9458 25.1102L95.5932 23.2179ZM94.3854 22.5865C93.8375 22.131 93.3846 21.4994 93.0457 20.652L91.1887 21.3948C91.631 22.5006 92.264 23.4237 93.1068 24.1244L94.3854 22.5865ZM93.0467 20.6546C92.7042 19.7915 92.5312 18.8779 92.5312 17.9062H90.5312C90.5312 19.1221 90.749 20.2867 91.1877 21.3923L93.0467 20.6546ZM92.5312 17.9062C92.5312 16.2272 93.0091 14.9692 93.8891 14.0323L92.4312 12.6631C91.1394 14.0386 90.5312 15.8197 90.5312 17.9062H92.5312ZM93.8899 14.0314C94.7567 13.1063 95.6261 12.4393 96.493 12.0024L95.5929 10.2164C94.4755 10.7795 93.423 11.6046 92.4304 12.6639L93.8899 14.0314ZM96.4986 11.9996C97.3602 11.5585 98.2206 11.3477 99.0898 11.3477V9.34766C97.881 9.34766 96.7101 9.64458 95.5874 10.2192L96.4986 11.9996ZM99.0898 11.3477C99.6127 11.3477 100.108 11.4145 100.58 11.5455L101.115 9.61851C100.462 9.43701 99.7857 9.34766 99.0898 9.34766V11.3477ZM100.593 11.5489C101.063 11.6732 101.578 11.8817 102.139 12.1869L103.095 10.4303C102.422 10.0636 101.757 9.78776 101.103 9.61513L100.593 11.5489ZM100.95 13.0591C100.86 13.4623 100.666 13.8206 100.345 14.1467L101.772 15.5486C102.342 14.9684 102.726 14.2799 102.902 13.4956L100.95 13.0591ZM100.339 14.1531C99.9977 14.5068 99.8109 14.5273 99.7695 14.5273V16.5273C100.572 16.5273 101.245 16.0948 101.778 15.5423L100.339 14.1531ZM99.7695 14.5273C99.7601 14.5273 99.7543 14.5267 99.7517 14.5264C99.7492 14.526 99.749 14.5258 99.7507 14.5263C99.7524 14.5268 99.7548 14.5277 99.7574 14.5289C99.7599 14.5301 99.7614 14.531 99.7617 14.5312L98.6523 16.1953C98.9923 16.422 99.3756 16.5273 99.7695 16.5273V14.5273ZM99.8317 14.5824C99.8814 14.6222 99.8915 14.6582 99.8851 14.6402C99.8758 14.6142 99.8555 14.5357 99.8555 14.3789H97.8555C97.8555 14.9794 98.0029 15.6806 98.5823 16.1442L99.8317 14.5824ZM99.8555 14.3789C99.8555 14.2496 99.8946 14.084 100.039 13.8672L98.375 12.7578C98.0507 13.2441 97.8555 13.7894 97.8555 14.3789H99.8555ZM100.031 13.8798C100.131 13.7345 100.325 13.5626 100.71 13.4109L99.9772 11.5501C99.3312 11.8046 98.7678 12.1874 98.3835 12.7452L100.031 13.8798ZM100.344 11.4805C99.6983 11.4805 99.0714 11.6034 98.4698 11.846L99.2177 13.7009C99.5848 13.5529 99.958 13.4805 100.344 13.4805V11.4805ZM98.4645 11.8481C97.8918 12.0829 97.3795 12.3962 96.9406 12.7952L98.286 14.2751C98.5346 14.0491 98.8426 13.8546 99.223 13.6987L98.4645 11.8481ZM96.95 12.7868C96.5217 13.1664 96.1699 13.6057 95.9013 14.103L97.6612 15.0533C97.8145 14.7693 98.0174 14.5132 98.2766 14.2835L96.95 12.7868ZM95.8979 14.1094C95.6267 14.6205 95.4766 15.167 95.4766 15.7383H97.4766C97.4766 15.5284 97.5295 15.3014 97.6646 15.0468L95.8979 14.1094ZM95.4766 15.7383C95.4766 16.8438 96.0198 17.723 96.9456 18.3151L98.0232 16.6302C97.6052 16.3629 97.4766 16.0859 97.4766 15.7383H95.4766ZM96.9468 18.3159C97.6824 18.7848 98.461 19.0703 99.2656 19.0703V17.0703C98.9453 17.0703 98.5363 16.9573 98.0219 16.6294L96.9468 18.3159ZM99.2656 19.0703C100.063 19.0703 100.785 18.7985 101.392 18.2798L100.093 16.7593C99.8402 16.975 99.5772 17.0703 99.2656 17.0703V19.0703ZM101.4 18.273C101.961 17.7831 102.378 17.1689 102.658 16.4547L100.796 15.725C100.622 16.167 100.383 16.5059 100.085 16.7661L101.4 18.273ZM102.659 16.4505C102.926 15.7612 103.066 15.061 103.066 14.3555H101.066C101.066 14.7905 100.98 15.2466 100.794 15.7292L102.659 16.4505ZM103.066 14.3555C103.066 13.8851 103.01 13.4319 102.887 13.0026L100.964 13.5521C101.029 13.779 101.066 14.0446 101.066 14.3555H103.066ZM112.438 20.0625L113.326 19.6037L112.488 17.9813L111.572 19.5609L112.438 20.0625ZM107.926 27.8438L107.957 28.8433L108.512 28.826L108.791 28.3454L107.926 27.8438ZM101.879 28.0312L101.028 27.5065L100.053 29.0884L101.91 29.0308L101.879 28.0312ZM110.223 14.4961L111.074 15.0208L111.393 14.5037L111.081 13.9825L110.223 14.4961ZM103.215 2.78906L103.358 1.79943L101.276 1.49714L102.357 3.30267L103.215 2.78906ZM109.754 3.73828L110.617 3.23396L110.374 2.81787L109.898 2.74865L109.754 3.73828ZM113.012 9.31641L112.148 9.82073L113.024 11.3209L113.882 9.80979L113.012 9.31641ZM116.176 3.73828L116.132 2.73924L115.579 2.76341L115.306 3.2449L116.176 3.73828ZM122.609 3.45703L123.469 3.96816L124.415 2.37714L122.566 2.45799L122.609 3.45703ZM115.801 14.9062L114.941 14.3951L114.662 14.8652L114.907 15.3542L115.801 14.9062ZM121.848 26.9766L121.622 27.9508L123.694 28.4304L122.742 26.5287L121.848 26.9766ZM115.215 25.4414L114.326 25.9002L114.539 26.3113L114.989 26.4157L115.215 25.4414ZM111.572 19.5609L107.061 27.3421L108.791 28.3454L113.303 20.5641L111.572 19.5609ZM107.895 26.8442L101.848 27.0317L101.91 29.0308L107.957 28.8433L107.895 26.8442ZM102.73 28.556L111.074 15.0208L109.371 13.9713L101.028 27.5065L102.73 28.556ZM111.081 13.9825L104.073 2.27545L102.357 3.30267L109.365 15.0097L111.081 13.9825ZM103.071 3.77869L109.61 4.72791L109.898 2.74865L103.358 1.79943L103.071 3.77869ZM108.89 4.2426L112.148 9.82073L113.875 8.81208L110.617 3.23396L108.89 4.2426ZM113.882 9.80979L117.046 4.23166L115.306 3.2449L112.142 8.82302L113.882 9.80979ZM116.219 4.73733L122.653 4.45608L122.566 2.45799L116.132 2.73924L116.219 4.73733ZM121.75 2.9459L114.941 14.3951L116.66 15.4174L123.469 3.96816L121.75 2.9459ZM114.907 15.3542L120.954 27.4245L122.742 26.5287L116.695 14.4583L114.907 15.3542ZM122.073 26.0023L115.44 24.4672L114.989 26.4157L121.622 27.9508L122.073 26.0023ZM116.103 24.9826L113.326 19.6037L111.549 20.5213L114.326 25.9002L116.103 24.9826Z" fill="#2A75BB"/>
</svg>
