<svg width="59" height="59" viewBox="0 0 59 59" fill="none" xmlns="http://www.w3.org/2000/svg">
<path d="M29.1667 5.83337C41.0667 5.83337 50.8958 14.7292 52.325 26.25H40.4833C39.1708 21.2042 34.5917 17.5 29.1667 17.5C23.7417 17.5 19.1625 21.2042 17.8792 26.25H6.00833C7.4375 14.7292 17.2667 5.83337 29.1667 5.83337Z" fill="#C12239"/>
<path d="M29.1667 0C13.0667 0 0 13.0667 0 29.1667C0 45.2667 13.0667 58.3333 29.1667 58.3333C45.2667 58.3333 58.3333 45.2667 58.3333 29.1667C58.3333 13.0667 45.2667 0 29.1667 0ZM29.1667 5.83333C41.0667 5.83333 50.8958 14.7292 52.325 26.25H40.4833C39.1708 21.2042 34.5917 17.5 29.1667 17.5C23.7417 17.5 19.1625 21.2042 17.8792 26.25H6.00833C7.4375 14.7292 17.2667 5.83333 29.1667 5.83333ZM35 29.1667C35 32.375 32.375 35 29.1667 35C25.9583 35 23.3333 32.375 23.3333 29.1667C23.3333 25.9583 25.9583 23.3333 29.1667 23.3333C32.375 23.3333 35 25.9583 35 29.1667ZM29.1667 52.5C17.2667 52.5 7.4375 43.6042 6.00833 32.0833H17.85C19.1333 37.1292 23.7125 40.8333 29.1375 40.8333C34.5625 40.8333 39.1417 37.1292 40.425 32.0833H52.2667C50.8958 43.6042 41.0667 52.5 29.1667 52.5V52.5Z" fill="black"/>
</svg>
